<?xml version="1.0" encoding="utf-8"?>
<svg data-name="Layer 1" width="923.22156" height="462.14386" viewBox="0 0 715 462.14386" xmlns="http://www.w3.org/2000/svg">
  <circle cx="71.843" cy="71.617" r="1.843" fill="#fff"/>
  <path d="M 434.449 455.496 L 422.185 450.332 L 413.772 388.853 L 301.738 388.853 L 292.619 450.081 L 281.647 455.567 C 279.853 456.464 279.703 458.966 281.377 460.071 C 281.803 460.353 282.302 460.502 282.812 460.502 L 433.438 460.502 C 435.444 460.503 436.698 458.332 435.695 456.595 C 435.411 456.102 434.973 455.716 434.449 455.496 Z" fill="#e6e6e6"/>
  <path d="M 633.542 397.032 L 83.199 397.032 C 77.186 397.019 72.32 392.141 72.32 386.129 L 72.32 308.523 L 644.42 308.523 L 644.42 386.129 C 644.42 392.141 639.554 397.019 633.542 397.032 Z" fill="#ccc"/>
  <path d="M 644.996 345.202 L 71.817 345.202 C 72.697 243.215 71.875 6.49 71.817 13.144 C 71.826 5.888 77.706 0.008 84.961 0 L 631.851 0 C 639.107 0.008 644.987 5.888 644.996 13.144 L 644.996 345.202 Z" fill="#e5e5e5"/>
  <path d="M 610.762 321.101 L 106.051 321.101 C 100.457 321.095 95.924 316.562 95.918 310.968 L 95.918 34.234 C 95.924 28.64 100.457 24.107 106.051 24.1 L 610.762 24.1 C 616.356 24.107 620.889 28.64 620.895 34.234 L 620.895 310.968 C 620.889 316.562 616.356 321.095 610.762 321.101 Z" fill="#fff"/>
  <path d="M 714.003 462.332 L 1.034 462.332 C 0.572 462.345 0.161 461.953 0.035 461.379 C -0.132 460.565 0.345 459.767 0.997 459.766 L 713.926 459.766 C 714.415 459.744 714.85 460.16 714.977 460.77 C 715.115 461.571 714.64 462.331 714.003 462.332 Z" fill="#ccc" style="" transform="matrix(0.999998, -0.001804, 0.001804, 0.999998, -0.831151, 0.645683)"/>
  <path d="M 478.303 122.103 C 480.894 113.846 486.785 106.273 494.933 103.482 C 503.082 100.69 517.296 103.299 521.139 111.047 C 526.676 122.214 524.189 135.889 521.252 148.013 C 519.721 147.932 518.175 147.868 516.626 147.81 L 514.433 140.503 L 514.433 147.738 C 502.336 147.364 489.743 147.598 477.142 147.84 C 476.013 139.257 475.712 130.359 478.303 122.103 Z" fill="#2f2e41"/>
  <polygon points="589.456 436.728 579.28 440.992 557.989 403.772 573.008 397.478 589.456 436.728" style="fill: rgb(255, 184, 184);"/>
  <path d="M 596.186 445.504 L 563.374 459.255 L 563.201 458.84 C 560.245 451.786 563.566 443.673 570.619 440.716 L 570.62 440.716 L 590.66 432.318 L 596.186 445.504 Z" fill="#2f2e41"/>
  <path d="M 440.229 260.908 C 437.523 257.001 439.005 251.598 443.326 249.62 L 465.198 183.622 L 479.845 191.435 L 453.74 253.851 C 455.839 259.374 451.172 265.098 445.339 264.154 C 443.263 263.818 441.416 262.644 440.229 260.908 Z" fill="#9f616a"/>
  <polygon points="467.195 448.559 456.162 448.559 450.913 406.002 467.197 406.002 467.195 448.559" style="fill: rgb(255, 184, 184);"/>
  <path d="M 470.009 459.255 L 434.433 459.253 L 434.433 458.803 C 434.434 451.156 440.633 444.957 448.28 444.956 L 448.281 444.956 L 470.01 444.957 L 470.009 459.255 Z" fill="#2f2e41"/>
  <polygon points="511.433 206.503 513.933 213.003 513.433 219.503 465.433 213.503 466.933 208.003 472.433 201.503 511.433 206.503" style="fill: rgb(255, 184, 184);"/>
  <circle cx="495.963" cy="130.535" r="17.475" style="fill: rgb(255, 184, 184);"/>
  <path d="M 477.433 160.503 L 487.433 154.503 L 507.433 152.503 L 525.11 156.503 L 524.933 189.003 L 513.933 213.003 L 466.933 208.003 L 464.933 201.464 C 464.933 201.464 451.933 184.003 465.933 174.003 L 477.433 160.503 Z" fill="#6c63ff"/>
  <path d="M 479.933 162.003 L 477.433 160.503 C 477.433 160.503 463.933 163.003 460.933 171.003 C 457.933 179.003 454.933 215.003 454.933 215.003 L 467.433 216.487 L 471.933 187.003 L 479.933 162.003 Z" fill="#6c63ff"/>
  <path d="M 513.933 217.003 L 513.933 228.109 C 513.933 228.109 526.933 245.003 519.933 258.003 C 519.933 258.003 534.933 286.003 535.933 296.003 L 549.933 342.003 C 549.933 342.003 584.933 377.003 581.933 402.003 L 583.933 410.003 L 560.933 420.003 L 555.933 413.003 L 516.933 346.003 L 483.933 285.003 L 477.933 357.003 C 477.933 357.003 481.933 413.003 470.933 419.003 L 469.933 428.003 L 446.591 428.003 L 446.591 419.448 C 446.591 419.448 437.933 389.003 442.933 366.003 L 440.933 269.003 C 440.933 269.003 449.933 228.003 460.933 221.003 L 464.933 211.003 L 513.933 217.003 Z" fill="#2f2e41"/>
  <path d="M 483.956 107.779 C 498.383 98.984 516.92 109.104 517.324 125.996 C 517.331 126.309 517.332 126.622 517.326 126.935 C 507.558 127.384 497.297 127.501 486.892 127.521 L 484.433 121.503 L 482.983 127.526 C 479.813 127.525 476.637 127.521 473.454 127.513 C 473.19 119.534 477.19 112.017 483.956 107.779 Z" fill="#2f2e41"/>
  <rect x="614.154" y="356.226" width="242.749" height="163.77" transform="matrix(0.969153, -0.24646, 0.24646, 0.969153, -462.662842, -24.135599)" fill="#fff"/>
  <path d="M 496.983 269.233 L 260.099 329.473 L 219.324 169.132 L 456.207 108.892 L 496.983 269.233 Z M 261.309 327.438 L 494.948 268.023 L 454.997 110.927 L 221.359 170.342 L 261.309 327.438 Z" fill="#3f3d56"/>
  <path d="M 271.737 288.608 L 467.236 238.892 L 438.923 127.557 L 243.425 177.273 L 271.737 288.608 Z" fill="#e6e6e6"/>
  <circle cx="313.556" cy="212.275" r="20.218" fill="#6c63ff"/>
  <path d="M 390.356 257.031 L 294.234 281.476 C 294.114 281.508 293.991 281.529 293.868 281.538 L 319.304 191.231 C 319.968 188.792 323.024 187.986 324.804 189.781 C 324.818 189.795 324.831 189.809 324.845 189.822 L 368.794 234.908 L 370.898 237.065 L 390.356 257.031 Z" fill="#3f3d56"/>
  <polygon points="390.356 257.031 357.538 265.377 367.697 237.879 368.428 235.899 368.794 234.908 370.898 237.065 390.356 257.031" opacity="0.2" style="isolation:isolate"/>
  <path d="M 443.877 243.421 L 360.739 264.563 L 370.898 237.065 L 371.629 235.084 L 384.867 199.25 C 385.938 196.876 388.829 195.954 391.077 197.269 C 391.216 197.36 391.349 197.461 391.475 197.569 L 443.877 243.421 Z" fill="#3f3d56"/>
  <path d="M 497.31 239.966 C 497.713 240.057 498.109 240.179 498.493 240.332 L 529 219.332 L 528.302 210.362 L 541.702 207.539 L 544.481 223.299 C 544.942 225.914 543.622 228.52 541.24 229.695 L 503.45 248.332 C 502.907 254.342 496.061 257.51 491.128 254.034 C 486.195 250.559 486.874 243.046 492.351 240.512 C 493.9 239.794 495.642 239.603 497.31 239.966 Z" style="fill: rgb(255, 184, 184);"/>
  <path d="M 517.933 158.003 L 525.11 156.503 C 525.11 156.503 540.933 151.003 541.933 171.003 L 543.933 218.003 L 529.079 220.003 L 522.933 179.003 L 517.933 158.003 Z" fill="#6c63ff"/>
</svg>