<?xml version="1.0" encoding="utf-8"?>
<svg data-name="Layer 1" width="900px" height="558.59384" viewBox="0 0 900 558.59384" xmlns="http://www.w3.org/2000/svg">
  <rect x="95.275" y="0.365" width="643.862" height="412.358" fill="#e6e6e6"/>
  <rect x="113.686" y="52.085" width="607.039" height="336.243" fill="#fff"/>
  <rect width="643.862" height="27.354" fill="#6c63ff" x="95"/>
  <circle cx="115.327" cy="13.985" r="5.07" fill="#fff"/>
  <circle cx="134.571" cy="13.985" r="5.07" fill="#fff"/>
  <circle cx="153.814" cy="13.985" r="5.07" fill="#fff"/>
  <rect x="168.844" y="86.973" width="155.981" height="266.467" fill="#e6e6e6"/>
  <rect x="351.75" y="86.973" width="129.984" height="73.348" fill="#6c63ff"/>
  <rect x="351.75" y="180.747" width="129.984" height="78.919" fill="#e6e6e6"/>
  <rect x="351.75" y="280.092" width="129.984" height="73.348" fill="#e6e6e6"/>
  <rect x="509.587" y="86.973" width="155.981" height="116.125" fill="#e6e6e6"/>
  <rect x="509.587" y="237.315" width="155.981" height="116.125" fill="#e6e6e6"/>
  <path d="M 605.479 211.44 L 605.479 186.44 C 605.479 160.652 633.395 144.534 655.729 157.428 C 666.094 163.412 672.479 174.472 672.479 186.44 L 672.479 211.44 C 672.476 213.924 670.463 215.937 667.979 215.94 L 609.979 215.94 C 607.494 215.937 605.481 213.924 605.479 211.44 Z" fill="#2f2e41"/>
  <polygon points="688.514 536.786 676.698 540.056 658.462 496.038 675.901 491.212 688.514 536.786" fill="#ffb8b8"/>
  <path d="M 669.152 537.579 L 692.796 537.579 C 692.796 537.579 692.796 537.579 692.796 537.579 L 692.796 552.465 C 692.796 552.465 692.796 552.465 692.796 552.465 L 654.265 552.465 C 654.265 552.465 654.265 552.465 654.265 552.465 C 654.265 544.244 660.93 537.579 669.152 537.579 Z" fill="#2f2e41" transform="matrix(0.963772, -0.266726, 0.266726, 0.963772, -120.971092, 199.392787)"/>
  <polygon points="565.328 545.875 553.068 545.875 547.235 498.587 565.33 498.587 565.328 545.875" fill="#ffb8b8"/>
  <path d="M 544.311 542.372 L 567.955 542.372 C 567.955 542.372 567.955 542.372 567.955 542.372 L 567.955 557.258 C 567.955 557.258 567.955 557.258 567.955 557.258 L 529.424 557.258 C 529.424 557.258 529.424 557.258 529.424 557.258 C 529.424 549.037 536.089 542.372 544.311 542.372 Z" fill="#2f2e41"/>
  <path d="M 550.545 281.598 C 554.271 286.628 561.639 287.067 565.937 282.515 L 598.527 297.173 L 595.562 278.842 L 565.069 267.733 C 559.068 262.776 549.952 266.173 548.66 273.848 C 548.199 276.58 548.881 279.382 550.545 281.598 Z" fill="#ffb8b8"/>
  <path d="M 618.259 391.836 C 608.02 391.836 597.42 390.311 588.51 385.775 C 578.949 381.002 571.807 372.463 568.801 362.209 C 564.159 347.51 570.012 333.069 575.673 319.104 C 579.18 310.45 582.493 302.277 583.353 294.22 L 583.653 291.36 C 584.992 278.512 586.148 267.417 592.55 263.255 C 595.868 261.098 600.33 260.975 606.191 262.878 L 661.236 280.759 L 659.212 385.25 L 658.877 385.361 C 658.589 385.458 639.185 391.836 618.259 391.836 Z" fill="#2f2e41"/>
  <path d="M 605.229 230.348 C 605.229 230.348 632.229 222.348 653.229 225.348 C 653.229 225.348 641.229 291.348 645.229 313.348 C 649.229 335.348 575.729 321.848 590.729 300.848 L 595.729 275.848 C 595.729 275.848 585.729 265.848 594.729 253.848 L 605.229 230.348 Z" fill="#6c63ff"/>
  <path d="M 591.948 389.855 L 558.672 383.616 L 570.29 294.209 C 571.071 291.713 589.068 235.066 597.241 232.001 C 603.176 229.911 609.245 228.225 615.407 226.954 L 616.591 226.717 L 609.919 236.726 L 583.355 300.38 L 591.948 389.855 Z" fill="#2f2e41"/>
  <path d="M 574.61 534.919 L 531.615 527.753 L 555.743 429.229 L 591.646 294.492 L 592.001 296.884 C 592.029 297.063 595.383 314.664 645.151 306.854 L 645.589 306.786 L 645.71 307.212 L 705.862 519.75 L 656.871 527.915 L 612.188 372.848 L 574.61 534.919 Z" fill="#2f2e41"/>
  <path d="M 634.202 406.587 L 634.229 405.83 C 634.259 404.99 637.217 321.458 636.229 287.863 C 635.237 254.154 646.151 224.962 646.261 224.671 L 646.35 224.437 L 646.591 224.367 C 660.711 220.334 672.96 232.373 673.082 232.495 L 673.254 232.667 L 669.233 265.843 L 686.449 386.484 L 634.202 406.587 Z" fill="#2f2e41"/>
  <circle cx="632.095" cy="190.797" r="24.561" fill="#ffb8b8"/>
  <path d="M 597.553 188.44 C 597.57 173.811 609.425 161.957 624.053 161.94 L 629.054 161.94 C 643.682 161.957 655.537 173.811 655.553 188.44 L 655.553 188.94 L 644.987 188.94 L 641.383 178.848 L 640.662 188.94 L 635.201 188.94 L 633.383 183.848 L 633.019 188.94 L 597.553 188.94 L 597.553 188.44 Z" fill="#2f2e41"/>
  <path d="M 629.678 218.751 C 628.665 217.38 628.528 215.551 629.325 214.044 C 634.624 203.966 642.043 185.344 632.195 173.86 L 631.488 173.035 L 660.075 173.035 L 660.075 215.954 L 634.106 220.536 C 633.843 220.583 633.576 220.606 633.309 220.607 C 631.871 220.607 630.52 219.917 629.678 218.751 Z" fill="#2f2e41"/>
  <path d="M 514.58 41.546 C 435.143 -25.483 312.934 18.616 294.603 120.925 C 276.271 223.234 375.567 307.021 473.335 271.742 C 491.666 265.127 508.348 254.622 522.235 240.949 L 687.853 380.697 C 695.167 386.881 706.433 382.828 708.131 373.402 C 708.919 369.027 707.314 364.564 703.919 361.694 L 703.901 361.679 L 538.283 221.931 C 578.155 164.705 567.883 86.529 514.58 41.546 Z M 503.903 208.474 C 453.685 267.989 357.871 250.823 331.439 177.575 C 305.007 104.327 367.78 29.933 444.431 43.666 C 461.909 46.798 478.256 54.475 491.827 65.926 C 534.525 101.955 539.932 165.776 503.903 208.474 Z" fill="#3f3d56"/>
  <path d="M 361.355 220.551 C 321.117 186.595 313.652 127.452 344.19 84.562 C 342.256 86.51 340.386 88.549 338.58 90.682 C 288.362 150.197 321.402 241.757 398.053 255.489 C 433.627 261.863 469.898 248.774 493.205 221.153 C 495.006 219.018 496.702 216.832 498.294 214.594 C 461.153 251.912 401.597 254.503 361.355 220.551 Z" opacity="0.3" style="isolation:isolate"/>
  <path d="M 639.98 324.536 C 646.062 326.023 652.009 321.651 652.404 315.403 L 686.837 305.846 L 672.84 293.642 L 642.288 304.589 C 634.505 304.612 629.666 313.052 633.577 319.78 C 634.969 322.176 637.284 323.895 639.98 324.536 Z" fill="#ffb8b8"/>
  <path d="M 654.292 319.477 L 652.197 299.571 L 680.959 283.702 L 662.207 261.002 L 665.266 235.502 L 672.886 232.236 L 673.123 232.541 C 676.716 237.161 708.229 277.822 708.229 282.848 C 708.229 288.011 702.2 303.171 693.952 307.296 C 685.996 311.274 656.121 319.005 654.854 319.333 L 654.292 319.477 Z" fill="#2f2e41"/>
  <path d="M 803.533 558.594 L 422.533 558.594 C 421.763 558.594 421.282 557.761 421.667 557.094 C 421.845 556.784 422.175 556.594 422.533 556.594 L 803.533 556.594 C 804.302 556.594 804.784 557.427 804.399 558.094 C 804.22 558.403 803.89 558.594 803.533 558.594 Z" fill="#ccc"/>
</svg>